<svg xmlns="http://www.w3.org/2000/svg" xmlns:xlink="http://www.w3.org/1999/xlink" width="256" zoomAndPan="magnify" viewBox="0 0 192 48" height="64" preserveAspectRatio="xMidYMid meet" version="1.0"><defs><g/><clipPath id="ac1fe0bf8d"><path d="M 6 3 L 190.039062 3 L 190.039062 43 L 6 43 Z M 6 3 " clip-rule="nonzero"/></clipPath><clipPath id="c547f89945"><path d="M 0.660156 0.761719 L 161 0.761719 L 161 23 L 0.660156 23 Z M 0.660156 0.761719 " clip-rule="nonzero"/></clipPath><clipPath id="16b77da8aa"><rect x="0" width="161" y="0" height="23"/></clipPath><clipPath id="8dbb44a063"><path d="M 58.546875 1.703125 L 184 1.703125 L 184 39.554688 L 58.546875 39.554688 Z M 58.546875 1.703125 " clip-rule="nonzero"/></clipPath><clipPath id="83e76daa85"><path d="M 38.726562 2.523438 L 53.492188 2.523438 L 53.492188 20.246094 L 38.726562 20.246094 Z M 38.726562 2.523438 " clip-rule="nonzero"/></clipPath><clipPath id="208d4693ac"><rect x="0" width="185" y="0" height="40"/></clipPath></defs><g clip-path="url(#ac1fe0bf8d)"><g transform="matrix(1, 0, 0, 1, 6, 3)"><g clip-path="url(#208d4693ac)"><g clip-path="url(#c547f89945)"><g transform="matrix(1, 0, 0, 1, -0.000000000000001776, 0.000000000000003997)"><g clip-path="url(#16b77da8aa)"><g fill="#ebefec" fill-opacity="1"><g transform="translate(0.769094, 16.861419)"><g><path d="M 9.125 -1.953125 L 9.03125 -1.953125 C 8.9375 -1.328125 8.617188 -0.8125 8.078125 -0.40625 C 7.546875 0 6.816406 0.203125 5.890625 0.203125 C 5.191406 0.203125 4.535156 0.0703125 3.921875 -0.1875 C 3.316406 -0.457031 2.785156 -0.851562 2.328125 -1.375 C 1.878906 -1.90625 1.523438 -2.5625 1.265625 -3.34375 C 1.003906 -4.132812 0.875 -5.046875 0.875 -6.078125 C 0.875 -7.097656 1.007812 -8.003906 1.28125 -8.796875 C 1.550781 -9.597656 1.925781 -10.265625 2.40625 -10.796875 C 2.894531 -11.335938 3.476562 -11.75 4.15625 -12.03125 C 4.832031 -12.3125 5.585938 -12.453125 6.421875 -12.453125 C 7.523438 -12.453125 8.472656 -12.210938 9.265625 -11.734375 C 10.054688 -11.265625 10.679688 -10.554688 11.140625 -9.609375 L 8.96875 -8.375 C 8.78125 -8.851562 8.488281 -9.257812 8.09375 -9.59375 C 7.695312 -9.925781 7.140625 -10.09375 6.421875 -10.09375 C 5.585938 -10.09375 4.925781 -9.851562 4.4375 -9.375 C 3.945312 -8.894531 3.703125 -8.140625 3.703125 -7.109375 L 3.703125 -5.140625 C 3.703125 -4.117188 3.945312 -3.363281 4.4375 -2.875 C 4.925781 -2.394531 5.585938 -2.15625 6.421875 -2.15625 C 6.742188 -2.15625 7.050781 -2.191406 7.34375 -2.265625 C 7.644531 -2.347656 7.90625 -2.46875 8.125 -2.625 C 8.34375 -2.78125 8.515625 -2.96875 8.640625 -3.1875 C 8.765625 -3.414062 8.828125 -3.679688 8.828125 -3.984375 L 8.828125 -4.59375 L 6.546875 -4.59375 L 6.546875 -6.828125 L 11.375 -6.828125 L 11.375 0 L 9.125 0 Z M 9.125 -1.953125 "/></g></g></g><g fill="#ebefec" fill-opacity="1"><g transform="translate(23.010628, 16.861419)"><g><path d="M 1.34375 0 L 1.34375 -12.25 L 9.6875 -12.25 L 9.6875 -9.875 L 4.015625 -9.875 L 4.015625 -7.375 L 8.875 -7.375 L 8.875 -5.015625 L 4.015625 -5.015625 L 4.015625 -2.375 L 9.6875 -2.375 L 9.6875 0 Z M 1.34375 0 "/></g></g></g><g fill="#169435" fill-opacity="1"><g transform="translate(43.306566, 16.861419)"><g/></g></g><g fill="#169435" fill-opacity="1"><g transform="translate(57.069239, 16.861419)"><g><path d="M 1.34375 0 L 1.34375 -12.25 L 7.140625 -12.25 C 7.710938 -12.25 8.226562 -12.148438 8.6875 -11.953125 C 9.144531 -11.765625 9.53125 -11.5 9.84375 -11.15625 C 10.164062 -10.820312 10.414062 -10.410156 10.59375 -9.921875 C 10.769531 -9.429688 10.859375 -8.898438 10.859375 -8.328125 C 10.859375 -7.742188 10.769531 -7.210938 10.59375 -6.734375 C 10.414062 -6.253906 10.164062 -5.84375 9.84375 -5.5 C 9.53125 -5.164062 9.144531 -4.898438 8.6875 -4.703125 C 8.226562 -4.515625 7.710938 -4.421875 7.140625 -4.421875 L 4.015625 -4.421875 L 4.015625 0 Z M 4.015625 -6.734375 L 6.828125 -6.734375 C 7.222656 -6.734375 7.535156 -6.835938 7.765625 -7.046875 C 7.992188 -7.253906 8.109375 -7.554688 8.109375 -7.953125 L 8.109375 -8.71875 C 8.109375 -9.113281 7.992188 -9.414062 7.765625 -9.625 C 7.535156 -9.832031 7.222656 -9.9375 6.828125 -9.9375 L 4.015625 -9.9375 Z M 4.015625 -6.734375 "/></g></g></g><g fill="#169435" fill-opacity="1"><g transform="translate(78.204827, 16.861419)"><g><path d="M 3.875 -12.25 L 3.875 -4.734375 C 3.875 -3.867188 4.039062 -3.222656 4.375 -2.796875 C 4.71875 -2.367188 5.289062 -2.15625 6.09375 -2.15625 C 6.882812 -2.15625 7.445312 -2.367188 7.78125 -2.796875 C 8.125 -3.222656 8.296875 -3.867188 8.296875 -4.734375 L 8.296875 -12.25 L 10.890625 -12.25 L 10.890625 -5.015625 C 10.890625 -4.117188 10.804688 -3.335938 10.640625 -2.671875 C 10.472656 -2.015625 10.195312 -1.472656 9.8125 -1.046875 C 9.425781 -0.617188 8.925781 -0.300781 8.3125 -0.09375 C 7.707031 0.101562 6.96875 0.203125 6.09375 0.203125 C 5.207031 0.203125 4.460938 0.101562 3.859375 -0.09375 C 3.253906 -0.300781 2.757812 -0.617188 2.375 -1.046875 C 1.988281 -1.472656 1.707031 -2.015625 1.53125 -2.671875 C 1.363281 -3.335938 1.28125 -4.117188 1.28125 -5.015625 L 1.28125 -12.25 Z M 3.875 -12.25 "/></g></g></g><g fill="#169435" fill-opacity="1"><g transform="translate(100.007495, 16.861419)"><g><path d="M 1.34375 0 L 1.34375 -12.25 L 4.015625 -12.25 L 4.015625 -2.375 L 8.6875 -2.375 L 8.6875 0 Z M 1.34375 0 "/></g></g></g><g fill="#169435" fill-opacity="1"><g transform="translate(118.931213, 16.861419)"><g><path d="M 5.3125 0.203125 C 4.238281 0.203125 3.328125 0.0195312 2.578125 -0.34375 C 1.828125 -0.707031 1.191406 -1.179688 0.671875 -1.765625 L 2.421875 -3.546875 C 3.253906 -2.609375 4.273438 -2.140625 5.484375 -2.140625 C 6.140625 -2.140625 6.625 -2.273438 6.9375 -2.546875 C 7.257812 -2.816406 7.421875 -3.171875 7.421875 -3.609375 C 7.421875 -3.953125 7.328125 -4.238281 7.140625 -4.46875 C 6.953125 -4.695312 6.570312 -4.851562 6 -4.9375 L 4.796875 -5.09375 C 3.492188 -5.25 2.539062 -5.632812 1.9375 -6.25 C 1.332031 -6.875 1.03125 -7.703125 1.03125 -8.734375 C 1.03125 -9.285156 1.132812 -9.789062 1.34375 -10.25 C 1.5625 -10.707031 1.863281 -11.097656 2.25 -11.421875 C 2.644531 -11.753906 3.125 -12.007812 3.6875 -12.1875 C 4.257812 -12.363281 4.90625 -12.453125 5.625 -12.453125 C 6.550781 -12.453125 7.363281 -12.304688 8.0625 -12.015625 C 8.769531 -11.722656 9.375 -11.296875 9.875 -10.734375 L 8.109375 -8.953125 C 7.816406 -9.285156 7.460938 -9.5625 7.046875 -9.78125 C 6.628906 -10 6.101562 -10.109375 5.46875 -10.109375 C 4.875 -10.109375 4.429688 -10 4.140625 -9.78125 C 3.847656 -9.570312 3.703125 -9.28125 3.703125 -8.90625 C 3.703125 -8.488281 3.816406 -8.1875 4.046875 -8 C 4.273438 -7.8125 4.644531 -7.675781 5.15625 -7.59375 L 6.375 -7.40625 C 7.632812 -7.207031 8.566406 -6.816406 9.171875 -6.234375 C 9.785156 -5.660156 10.09375 -4.835938 10.09375 -3.765625 C 10.09375 -3.179688 9.984375 -2.644531 9.765625 -2.15625 C 9.554688 -1.664062 9.25 -1.242188 8.84375 -0.890625 C 8.445312 -0.546875 7.945312 -0.273438 7.34375 -0.078125 C 6.75 0.109375 6.070312 0.203125 5.3125 0.203125 Z M 5.3125 0.203125 "/></g></g></g><g fill="#169435" fill-opacity="1"><g transform="translate(139.505055, 16.861419)"><g><path d="M 1.34375 0 L 1.34375 -12.25 L 9.6875 -12.25 L 9.6875 -9.875 L 4.015625 -9.875 L 4.015625 -7.375 L 8.875 -7.375 L 8.875 -5.015625 L 4.015625 -5.015625 L 4.015625 -2.375 L 9.6875 -2.375 L 9.6875 0 Z M 1.34375 0 "/></g></g></g></g></g></g><g clip-path="url(#8dbb44a063)"><path fill="#127a2b" d="M 58.574219 23.222656 L 160.445312 23.222656 L 160.5625 22.714844 L 161.570312 18.308594 L 163.660156 28.757812 L 164.378906 32.34375 L 164.941406 28.730469 L 167.230469 13.996094 L 168.410156 34.683594 L 168.683594 39.5 L 169.695312 34.78125 L 172.164062 23.222656 L 184 23.222656 L 184 21.917969 L 171.113281 21.917969 L 171.003906 22.433594 L 169.429688 29.792969 L 168.175781 7.8125 L 167.828125 1.703125 L 166.886719 7.75 L 164.21875 24.917969 L 162.253906 15.082031 L 161.65625 12.109375 L 160.980469 15.066406 L 159.414062 21.917969 L 58.574219 21.917969 Z M 58.574219 23.222656 " fill-opacity="1" fill-rule="nonzero"/></g><g clip-path="url(#83e76daa85)"><path fill="#40c4ea" d="M 53.289062 12.761719 C 53.191406 11.644531 52.828125 10.558594 52.214844 9.582031 C 52.195312 9.550781 52.171875 9.515625 52.148438 9.484375 C 52.988281 8.246094 53.816406 6.925781 53.816406 5.964844 C 53.816406 4.070312 52.277344 2.527344 50.378906 2.527344 C 48.484375 2.527344 46.945312 4.070312 46.945312 5.964844 C 46.945312 6.066406 46.957031 6.171875 46.972656 6.277344 C 46.695312 6.246094 46.417969 6.226562 46.140625 6.226562 C 42.773438 6.226562 39.902344 8.523438 39.152344 11.808594 C 38.726562 13.675781 39.054688 15.597656 40.074219 17.21875 C 41.09375 18.839844 42.683594 19.964844 44.550781 20.390625 C 45.078125 20.511719 45.617188 20.570312 46.152344 20.570312 C 49.515625 20.570312 52.386719 18.277344 53.136719 14.992188 C 53.300781 14.28125 53.351562 13.5625 53.296875 12.851562 C 53.300781 12.820312 53.296875 12.792969 53.289062 12.761719 Z M 50.378906 3.027344 C 52 3.027344 53.320312 4.34375 53.320312 5.964844 C 53.320312 6.894531 52.261719 8.4375 51.414062 9.675781 C 50.957031 10.347656 50.601562 10.875 50.378906 11.292969 C 50.160156 10.875 49.804688 10.347656 49.34375 9.675781 C 48.496094 8.4375 47.441406 6.894531 47.441406 5.964844 C 47.441406 4.34375 48.761719 3.027344 50.378906 3.027344 Z M 45.585938 6.980469 C 45.652344 6.929688 45.714844 6.882812 45.765625 6.835938 C 45.796875 6.804688 45.816406 6.769531 45.832031 6.734375 C 45.933594 6.730469 46.035156 6.726562 46.140625 6.726562 C 46.460938 6.726562 46.785156 6.75 47.105469 6.800781 C 47.4375 7.765625 48.222656 8.914062 48.933594 9.957031 C 49.523438 10.816406 50.132812 11.707031 50.132812 12.039062 C 50.132812 12.175781 50.242188 12.289062 50.378906 12.289062 C 50.519531 12.289062 50.628906 12.175781 50.628906 12.039062 C 50.628906 11.707031 51.238281 10.816406 51.828125 9.957031 C 51.832031 9.949219 51.839844 9.941406 51.84375 9.933594 C 52.390625 10.828125 52.710938 11.820312 52.796875 12.835938 C 52.6875 13.417969 52.09375 13.734375 51.46875 14.066406 C 50.777344 14.433594 50.066406 14.816406 50.078125 15.613281 C 49.988281 15.664062 49.660156 15.660156 49.460938 15.660156 C 49.023438 15.652344 48.53125 15.648438 48.234375 15.90625 C 47.921875 16.183594 47.269531 15.789062 47.066406 15.632812 C 46.957031 15.542969 46.800781 15.523438 46.621094 15.5 C 46.527344 15.488281 46.335938 15.460938 46.277344 15.421875 C 46.277344 15.414062 46.28125 15.398438 46.289062 15.375 C 46.386719 15.109375 46.5625 15.078125 46.988281 15.023438 C 47.109375 15.007812 47.230469 14.992188 47.359375 14.96875 C 47.808594 14.882812 48.710938 14.441406 48.777344 14.011719 C 48.800781 13.851562 48.726562 13.707031 48.574219 13.628906 C 47.089844 12.84375 46.863281 11.214844 46.859375 11.199219 L 46.84375 11.058594 L 46.839844 11.058594 C 46.84375 11.019531 46.84375 10.976562 46.847656 10.9375 C 46.875 10.527344 46.914062 9.839844 46.429688 9.691406 C 46.230469 9.632812 46.066406 9.613281 45.90625 9.597656 C 45.675781 9.574219 45.453125 9.550781 45.109375 9.398438 C 44.804688 9.261719 44.796875 9.175781 44.894531 8.570312 C 44.917969 8.417969 44.945312 8.246094 44.964844 8.046875 C 45.039062 7.390625 45.328125 7.171875 45.585938 6.980469 Z M 42.335938 18.882812 C 41.609375 18.375 40.984375 17.726562 40.496094 16.953125 C 39.585938 15.507812 39.273438 13.808594 39.59375 12.140625 C 39.621094 12.160156 39.652344 12.175781 39.683594 12.183594 C 40.292969 12.332031 40.902344 12.589844 40.980469 12.734375 C 40.972656 12.816406 40.960938 12.894531 40.945312 12.976562 C 40.886719 13.371094 40.8125 13.859375 41.199219 14.144531 C 41.527344 14.378906 41.824219 14.128906 41.980469 13.992188 C 42.011719 13.964844 42.054688 13.925781 42.089844 13.902344 C 42.183594 13.996094 42.3125 14.089844 42.445312 14.1875 C 42.582031 14.289062 43 14.597656 42.976562 14.699219 C 42.953125 14.8125 42.902344 14.953125 42.851562 15.089844 C 42.71875 15.460938 42.605469 15.78125 42.796875 15.988281 C 42.898438 16.097656 43.253906 16.773438 43.304688 16.949219 C 43.300781 17.003906 43.304688 17.078125 43.3125 17.199219 C 43.320312 17.328125 43.339844 17.632812 43.304688 17.707031 C 43.066406 18.109375 42.546875 18.773438 42.335938 18.882812 Z M 52.652344 14.882812 C 51.953125 17.9375 49.28125 20.074219 46.152344 20.074219 C 45.652344 20.074219 45.152344 20.015625 44.664062 19.90625 C 43.992188 19.753906 43.359375 19.5 42.78125 19.164062 C 43.238281 18.765625 43.726562 17.972656 43.734375 17.960938 C 43.839844 17.785156 43.832031 17.507812 43.808594 17.167969 C 43.804688 17.101562 43.800781 17.015625 43.800781 17.003906 C 43.855469 16.757812 43.347656 15.902344 43.195312 15.6875 C 43.199219 15.601562 43.273438 15.386719 43.320312 15.257812 C 43.375 15.105469 43.433594 14.953125 43.464844 14.808594 C 43.558594 14.390625 43.125 14.070312 42.742188 13.789062 C 42.609375 13.691406 42.484375 13.597656 42.417969 13.527344 C 42.121094 13.214844 41.796875 13.492188 41.65625 13.613281 C 41.609375 13.65625 41.53125 13.722656 41.488281 13.738281 C 41.359375 13.640625 41.386719 13.402344 41.4375 13.054688 C 41.453125 12.957031 41.46875 12.863281 41.476562 12.769531 C 41.53125 12.203125 40.449219 11.855469 39.800781 11.699219 C 39.765625 11.691406 39.726562 11.691406 39.695312 11.699219 C 40.367188 9.132812 42.445312 7.257812 44.996094 6.824219 C 44.765625 7.046875 44.539062 7.386719 44.46875 7.992188 C 44.449219 8.179688 44.421875 8.34375 44.402344 8.492188 C 44.304688 9.082031 44.234375 9.550781 44.90625 9.851562 C 45.324219 10.039062 45.605469 10.066406 45.855469 10.09375 C 46.003906 10.109375 46.132812 10.121094 46.28125 10.167969 C 46.316406 10.179688 46.390625 10.269531 46.351562 10.90625 C 46.339844 11.085938 46.332031 11.230469 46.375 11.328125 C 46.433594 11.667969 46.765625 13.164062 48.21875 14.003906 C 48.054688 14.15625 47.625 14.410156 47.265625 14.480469 C 47.152344 14.5 47.039062 14.515625 46.925781 14.527344 C 46.503906 14.582031 46.027344 14.640625 45.820312 15.207031 C 45.742188 15.429688 45.789062 15.585938 45.84375 15.679688 C 45.992188 15.917969 46.304688 15.960938 46.554688 15.992188 C 46.628906 16.003906 46.734375 16.019531 46.769531 16.03125 C 47.046875 16.246094 47.515625 16.5 47.957031 16.5 C 48.171875 16.5 48.382812 16.4375 48.5625 16.28125 C 48.714844 16.148438 49.125 16.152344 49.453125 16.15625 C 49.871094 16.160156 50.234375 16.167969 50.441406 15.957031 C 50.53125 15.867188 50.578125 15.742188 50.574219 15.605469 C 50.5625 15.148438 50.992188 14.882812 51.703125 14.507812 C 52.085938 14.304688 52.496094 14.085938 52.804688 13.785156 C 52.785156 14.148438 52.734375 14.515625 52.652344 14.882812 Z M 52.652344 14.882812 " fill-opacity="1" fill-rule="nonzero"/></g><path fill="#40c4ea" d="M 52.382812 5.964844 C 52.382812 4.859375 51.484375 3.960938 50.378906 3.960938 C 49.277344 3.960938 48.378906 4.859375 48.378906 5.964844 C 48.378906 7.070312 49.277344 7.96875 50.378906 7.96875 C 51.484375 7.96875 52.382812 7.070312 52.382812 5.964844 Z M 48.875 5.964844 C 48.875 5.136719 49.550781 4.460938 50.378906 4.460938 C 51.210938 4.460938 51.886719 5.136719 51.886719 5.964844 C 51.886719 6.792969 51.210938 7.46875 50.378906 7.46875 C 49.550781 7.46875 48.875 6.792969 48.875 5.964844 Z M 48.875 5.964844 " fill-opacity="1" fill-rule="nonzero"/></g></g></g></svg>